<?xml version="1.0" encoding="UTF-8"?>
<svg id="Layer_2" data-name="Layer 2" xmlns="http://www.w3.org/2000/svg" viewBox="0 0 379.71 56.22">
  <defs>
    <style>
      .cls-1 {
        fill: #015fff;
      }

      .cls-1, .cls-2 {
        stroke-width: 0px;
      }

      .cls-2 {
        fill: #fff;
      }
    </style>
  </defs>
  <g id="Layer_1-2" data-name="Layer 1">
    <g>
      <path class="cls-2" d="m275.31,16.87c-9.45,0-17.15,7.69-17.15,17.15s7.69,17.15,17.15,17.15,17.15-7.69,17.15-17.15-7.69-17.15-17.15-17.15Zm0,30.14c-7.17,0-12.99-5.83-12.99-12.99s5.83-12.99,12.99-12.99,12.99,5.83,12.99,12.99-5.83,12.99-12.99,12.99ZM109.54,16.87c-5.19,0-9.85,2.32-12.99,5.98V5.57h-4.15v28.44c0,9.45,7.69,17.15,17.15,17.15s17.15-7.69,17.15-17.15-7.69-17.15-17.15-17.15Zm0,30.14c-7.17,0-12.99-5.83-12.99-12.99s5.83-12.99,12.99-12.99,12.99,5.83,12.99,12.99-5.83,12.99-12.99,12.99Zm61.4-29.38h4.15v18.38c0,8.36-6.8,15.15-15.15,15.15s-15.15-6.8-15.15-15.15v-18.38h4.15v18.38c0,6.07,4.94,11,11,11s11-4.94,11-11v-18.38Zm157.8,14.3v18.38h-4.15v-18.38c0-6.07-4.94-11-11-11s-11,4.94-11,11v18.38h-4.15v-18.38c0-8.36,6.8-15.15,15.15-15.15s15.15,6.8,15.15,15.15ZM133.16,5.57h4.15v44.74h-4.15V5.57Zm203.05,12.06h4.15v32.68h-4.15V17.63Zm5.45-9.29c0,1.86-1.51,3.36-3.36,3.36s-3.36-1.51-3.36-3.36,1.51-3.36,3.36-3.36c.78,0,1.49.26,2.06.71.79.62,1.3,1.58,1.3,2.66Zm-92.14,32.5h4.68c-2.64,6.06-8.7,10.32-15.72,10.32-9.45,0-17.15-7.69-17.15-17.15s7.69-17.15,17.15-17.15c6.99,0,13.02,4.21,15.68,10.23h-4.69c-2.3-3.65-6.37-6.08-10.99-6.08-7.17,0-12.99,5.83-12.99,12.99s5.83,12.99,12.99,12.99c4.66,0,8.75-2.47,11.05-6.16Zm130.18,0c-2.64,6.06-8.7,10.32-15.72,10.32-9.45,0-17.15-7.69-17.15-17.15s7.69-17.15,17.15-17.15c6.99,0,13.02,4.21,15.68,10.23h-4.69c-2.3-3.65-6.37-6.08-10.99-6.08-7.17,0-12.99,5.83-12.99,12.99s5.83,12.99,12.99,12.99c4.66,0,8.75-2.47,11.05-6.16h4.68Zm-193.37-18.95c-6.69,6.69-6.69,17.56,0,24.25,3.34,3.34,7.73,5.01,12.12,5.01,1.65,0,3.29-.24,4.88-.71,2.65-.78,5.15-2.22,7.24-4.31h0s0,0,0,0c1.54-1.54,2.74-3.32,3.6-5.29h-4.67c-.53.85-1.15,1.64-1.87,2.36-5.07,5.07-13.31,5.07-18.38,0-2-2-3.21-4.51-3.63-7.11h29.97v-2.08c0-4.58-1.78-8.89-5.02-12.12-6.69-6.68-17.56-6.69-24.25,0Zm-.7,10.05c.42-2.61,1.63-5.11,3.63-7.11,5.07-5.07,13.31-5.07,18.38,0,1.96,1.96,3.21,4.43,3.64,7.11h-25.65Z"/>
      <g>
        <circle class="cls-1" cx="13.19" cy="13.19" r="13.19"/>
        <circle class="cls-1" cx="43.03" cy="13.19" r="13.19"/>
        <circle class="cls-1" cx="43.03" cy="43.03" r="13.19"/>
      </g>
    </g>
  </g>
</svg>