<?xml version="1.0" encoding="utf-8"?>
<!-- Generator: Adobe Illustrator 26.3.1, SVG Export Plug-In . SVG Version: 6.00 Build 0)  -->
<svg version="1.1" id="Layer_1" xmlns="http://www.w3.org/2000/svg" xmlns:xlink="http://www.w3.org/1999/xlink" x="0px" y="0px"
	 viewBox="0 0 432 72" style="enable-background:new 0 0 432 72;" xml:space="preserve">
<style type="text/css">
	.st0{fill:#FFFFFF;}
</style>
<path class="st0" d="M272.7,19.8c-13.7,0-24.8,11.1-24.8,24.8s11.1,24.8,24.8,24.8c13.7,0,24.8-11.1,24.8-24.8
	S286.4,19.8,272.7,19.8z M272.7,63.4c-10.4,0-18.8-8.4-18.8-18.8s8.4-18.8,18.8-18.8c10.4,0,18.8,8.4,18.8,18.8
	S283.1,63.4,272.7,63.4z M33.2,19.8c-7.5,0-14.2,3.4-18.8,8.6v-25h-6v41.1c0,13.7,11.1,24.8,24.8,24.8c13.7,0,24.8-11.1,24.8-24.8
	S46.8,19.8,33.2,19.8z M33.2,63.4c-10.4,0-18.8-8.4-18.8-18.8s8.4-18.8,18.8-18.8c10.4,0,18.8,8.4,18.8,18.8S43.5,63.4,33.2,63.4z
	 M121.9,20.9h6v26.6c0,12.1-9.8,21.9-21.9,21.9s-21.9-9.8-21.9-21.9V20.9h6v26.6c0,8.8,7.1,15.9,15.9,15.9s15.9-7.1,15.9-15.9V20.9z
	 M350,41.6v26.6h-6V41.6c0-8.8-7.1-15.9-15.9-15.9c-8.8,0-15.9,7.1-15.9,15.9v26.6h-6V41.6c0-12.1,9.8-21.9,21.9-21.9
	S350,29.5,350,41.6z M67.3,3.5h6v64.7h-6V15.3V3.5z M360.8,20.9h6v47.2h-6V36.4V20.9z M368.6,7.5c0,2.7-2.2,4.9-4.9,4.9
	c-2.7,0-4.9-2.2-4.9-4.9c0-2.7,2.2-4.9,4.9-4.9c1.1,0,2.2,0.4,3,1C367.9,4.5,368.6,5.9,368.6,7.5z M235.5,54.5h6.8
	c-3.8,8.8-12.6,14.9-22.7,14.9c-13.7,0-24.8-11.1-24.8-24.8s11.1-24.8,24.8-24.8c10.1,0,18.8,6.1,22.7,14.8h-6.8
	c-3.3-5.3-9.2-8.8-15.9-8.8c-10.4,0-18.8,8.4-18.8,18.8s8.4,18.8,18.8,18.8C226.2,63.4,232.2,59.8,235.5,54.5z M423.6,54.5
	c-3.8,8.8-12.6,14.9-22.7,14.9c-13.7,0-24.8-11.1-24.8-24.8s11.1-24.8,24.8-24.8c10.1,0,18.8,6.1,22.7,14.8h-6.8
	c-3.3-5.3-9.2-8.8-15.9-8.8c-10.4,0-18.8,8.4-18.8,18.8s8.4,18.8,18.8,18.8c6.7,0,12.7-3.6,16-8.9H423.6z M144.2,27.1
	c-9.7,9.7-9.7,25.4,0,35c4.8,4.8,11.2,7.2,17.5,7.2c2.4,0,4.8-0.3,7.1-1c3.8-1.1,7.4-3.2,10.5-6.2l0,0l0,0c2.2-2.2,4-4.8,5.2-7.7
	h-6.7c-0.8,1.2-1.7,2.4-2.7,3.4c-7.3,7.3-19.2,7.3-26.6,0c-2.9-2.9-4.6-6.5-5.2-10.3h43.3v-3c0-6.6-2.6-12.8-7.3-17.5
	C169.5,17.4,153.8,17.4,144.2,27.1z M143.1,41.6c0.6-3.8,2.4-7.4,5.2-10.3c7.3-7.3,19.2-7.3,26.6,0c2.8,2.8,4.6,6.4,5.3,10.3H143.1z
	"/>
</svg>
